<?xml version="1.0" encoding="utf-8"?>
<!-- Generator: Adobe Illustrator 24.1.0, SVG Export Plug-In . SVG Version: 6.00 Build 0)  -->
<svg version="1.1" xmlns="http://www.w3.org/2000/svg" xmlns:xlink="http://www.w3.org/1999/xlink" x="0px" y="0px"
	 viewBox="0 0 56.28 56.28" style="enable-background:new 0 0 56.28 56.28;" xml:space="preserve">
<style type="text/css">
	.st0{display:none;}
	.st1{opacity:0.82;}
	.st2{opacity:0.7;fill:#1D1D1B;}
	.st3{fill:#1C9BD3;}
	.st4{opacity:0.7;}
	.st5{fill:#FFFFFF;}
	.st6{fill:none;stroke:#1C9BD3;stroke-miterlimit:10;}
	.st7{display:none;opacity:0.29;}
	.st8{opacity:0.29;}
	.st9{display:inline;}
	.st10{fill:#212121;}
	.st11{display:none;fill:#DADADA;}
	.st12{display:inline;fill:#1C9BD3;}
	.st13{fill:#3C3C3B;}
	.st14{fill:#878787;}
	.st15{fill:none;stroke:#878787;stroke-width:6;stroke-linecap:round;stroke-linejoin:round;stroke-miterlimit:10;}
	.st16{fill:none;stroke:#B2B2B2;stroke-miterlimit:10;}
	.st17{fill:#009FE3;}
	.st18{fill:none;stroke:#9D9D9C;stroke-miterlimit:10;}
	.st19{fill:none;stroke:#575756;stroke-width:0.5;stroke-miterlimit:10;}
	.st20{fill:none;stroke:#706F6F;stroke-width:2;stroke-linecap:round;stroke-linejoin:round;stroke-miterlimit:10;}
	.st21{clip-path:url(#SVGID_16_);}
	.st22{fill:none;stroke:#F6F6F6;stroke-width:5;stroke-miterlimit:10;}
	.st23{opacity:0.88;}
	.st24{fill:#575756;}
	.st25{display:inline;clip-path:url(#SVGID_18_);}
	.st26{fill:#DADADA;}
	.st27{display:inline;fill:#FFFFFF;}
	.st28{clip-path:url(#SVGID_60_);}
	.st29{fill:none;stroke:#FFFFFF;stroke-width:6;stroke-linecap:round;stroke-linejoin:round;stroke-miterlimit:10;}
	.st30{fill:none;stroke:#1C9BD3;stroke-width:2;stroke-miterlimit:10;}
	.st31{fill:none;stroke:#575756;stroke-miterlimit:10;}
	.st32{fill:none;stroke:#1D1D1B;stroke-miterlimit:10;}
	.st33{fill:#706F6F;}
	.st34{fill:none;stroke:#575756;stroke-width:0.75;stroke-miterlimit:10;}
	.st35{opacity:0.4;}
	.st36{fill-rule:evenodd;clip-rule:evenodd;fill:#1C9BD3;}
	.st37{opacity:0.8;}
	.st38{fill:#E30613;}
	.st39{fill:none;stroke:#1D1D1B;stroke-width:0.75;stroke-miterlimit:10;}
	.st40{fill:none;stroke:#E30613;stroke-miterlimit:10;}
	.st41{fill:#FFFFFF;stroke:#FFFFFF;stroke-miterlimit:10;}
	.st42{opacity:0.8;fill:url(#SVGID_95_);}
	.st43{opacity:0.8;fill:url(#SVGID_96_);}
	.st44{opacity:0.8;fill:url(#SVGID_97_);}
	.st45{opacity:0.8;fill:#1D1D1B;}
	.st46{fill:none;stroke:#DADADA;stroke-width:2;stroke-linecap:round;stroke-linejoin:round;stroke-miterlimit:10;}
</style>
<g id="Capa_1">
</g>
<g id="Login">
</g>
<g id="Home">
</g>
<g id="Credit">
</g>
<g id="Capa_5">
</g>
<g id="Nuew_account">
</g>
<g id="Photo">
	<g id="buAxjw_1_">
		<g>
			<path class="st5" d="M0,6.63C0.15,6.18,0.25,5.7,0.48,5.29c0.69-1.2,1.78-1.78,3.15-1.78c3.57-0.01,7.15,0,10.72,0
				c4.26,0,8.52,0,12.79,0c1.42,0,2.54,0.94,2.72,2.26c0.22,1.53-0.87,2.89-2.42,3.01c-0.16,0.01-0.31,0.01-0.47,0.01
				c-7.08,0-14.15,0-21.23,0c-0.14,0-0.29,0-0.45,0c0,14.07,0,28.12,0,42.19c14.05,0,28.1,0,42.19,0c0-0.15,0-0.29,0-0.43
				c0-7.12,0-14.24,0-21.35c0-1.32,0.69-2.32,1.83-2.68c1.72-0.54,3.38,0.69,3.45,2.55c0,0.05,0,0.1,0,0.16c0,7.81,0,15.61,0,23.42
				c0,1.76-1.07,3.14-2.76,3.55c-0.14,0.03-0.28,0.06-0.42,0.1c-15.49,0-30.97,0-46.46,0c-0.05-0.02-0.09-0.05-0.14-0.06
				c-0.95-0.15-1.7-0.61-2.29-1.37c-0.38-0.49-0.54-1.06-0.7-1.64C0,37.68,0,22.16,0,6.63z"/>
			<path class="st5" d="M56.28,10c-0.15,0.68-0.6,1.16-1.08,1.63c-9.53,9.52-19.06,19.05-28.58,28.58
				c-0.17,0.17-0.33,0.24-0.57,0.24c-3.28-0.01-6.56,0-9.85,0c-0.11,0-0.22,0-0.37,0c0-0.14,0-0.24,0-0.34c0-3.3,0-6.61,0-9.91
				c0-0.22,0.06-0.37,0.21-0.52C25.69,20.03,35.35,10.38,45,0.73c0.36-0.36,0.79-0.58,1.28-0.73c0.23,0,0.46,0,0.69,0
				c0.61,0.16,1.07,0.54,1.51,0.98c2.16,2.18,4.34,4.35,6.52,6.52c0.53,0.53,1.12,1.03,1.29,1.82C56.28,9.55,56.28,9.78,56.28,10z
				 M46.6,6.18c-0.06,0.05-0.13,0.11-0.19,0.18c-8.38,8.38-16.76,16.75-25.13,25.14c-0.1,0.1-0.16,0.26-0.17,0.4
				c-0.01,1.03-0.01,2.07,0,3.1c0,0.06,0.02,0.12,0.03,0.19c1.13,0,2.24,0,3.36-0.01c0.1,0,0.21-0.08,0.28-0.16
				c4.65-4.64,9.3-9.29,13.95-13.94c3.13-3.13,6.26-6.26,9.39-9.39c0.67-0.67,1.34-1.33,2.01-2C48.93,8.51,47.77,7.35,46.6,6.18z"/>
		</g>
	</g>
</g>
<g id="take">
</g>
<g id="galeria">
</g>
<g id="Firma1">
</g>
<g id="firma2">
</g>
<g id="Ya_firmas">
</g>
<g id="finaliza">
</g>
<g id="Follow_x5F_up">
</g>
<g id="co_-_applicant">
</g>
<g id="firma3">
</g>
<g id="firma3_x2C_3">
</g>
<g id="referencias">
</g>
<g id="signature">
</g>
<g id="approvade">
</g>
<g id="date">
</g>
<g id="Denegade">
</g>
<g id="Capa_23">
</g>
<g id="Capa_26">
</g>
<g id="calendario">
</g>
<g id="Capa_25">
</g>
</svg>
