<?xml version="1.0" encoding="utf-8"?>
<!-- Generator: Adobe Illustrator 24.1.0, SVG Export Plug-In . SVG Version: 6.00 Build 0)  -->
<svg version="1.1" xmlns="http://www.w3.org/2000/svg" xmlns:xlink="http://www.w3.org/1999/xlink" x="0px" y="0px"
	 viewBox="0 0 23.95 29.74" style="enable-background:new 0 0 23.95 29.74;" xml:space="preserve">
<style type="text/css">
	.st0{display:none;}
	.st1{opacity:0.82;}
	.st2{opacity:0.7;fill:#1D1D1B;}
	.st3{fill:#1C9BD3;}
	.st4{opacity:0.7;}
	.st5{fill:#FFFFFF;}
	.st6{fill:none;stroke:#1C9BD3;stroke-miterlimit:10;}
	.st7{display:none;opacity:0.29;}
	.st8{opacity:0.29;}
	.st9{display:inline;}
	.st10{fill:#212121;}
	.st11{display:none;fill:#DADADA;}
	.st12{display:inline;fill:#1C9BD3;}
	.st13{fill:#3C3C3B;}
	.st14{fill:#878787;}
	.st15{fill:none;stroke:#878787;stroke-width:6;stroke-linecap:round;stroke-linejoin:round;stroke-miterlimit:10;}
	.st16{fill:none;stroke:#B2B2B2;stroke-miterlimit:10;}
	.st17{fill:#009FE3;}
	.st18{fill:none;stroke:#9D9D9C;stroke-miterlimit:10;}
	.st19{fill:none;stroke:#575756;stroke-width:0.5;stroke-miterlimit:10;}
	.st20{fill:none;stroke:#706F6F;stroke-width:2;stroke-linecap:round;stroke-linejoin:round;stroke-miterlimit:10;}
	.st21{clip-path:url(#SVGID_16_);}
	.st22{fill:none;stroke:#F6F6F6;stroke-width:5;stroke-miterlimit:10;}
	.st23{opacity:0.88;}
	.st24{fill:#575756;}
	.st25{display:inline;clip-path:url(#SVGID_18_);}
	.st26{fill:#DADADA;}
	.st27{display:inline;fill:#FFFFFF;}
	.st28{clip-path:url(#SVGID_60_);}
	.st29{fill:none;stroke:#FFFFFF;stroke-width:6;stroke-linecap:round;stroke-linejoin:round;stroke-miterlimit:10;}
	.st30{fill:none;stroke:#1C9BD3;stroke-width:2;stroke-miterlimit:10;}
	.st31{fill:none;stroke:#575756;stroke-miterlimit:10;}
	.st32{fill:none;stroke:#1D1D1B;stroke-miterlimit:10;}
	.st33{fill:#706F6F;}
	.st34{fill:none;stroke:#575756;stroke-width:0.75;stroke-miterlimit:10;}
	.st35{opacity:0.4;}
	.st36{fill-rule:evenodd;clip-rule:evenodd;fill:#1C9BD3;}
	.st37{opacity:0.8;}
	.st38{fill:#E30613;}
	.st39{fill:none;stroke:#1D1D1B;stroke-width:0.75;stroke-miterlimit:10;}
	.st40{fill:none;stroke:#E30613;stroke-miterlimit:10;}
	.st41{fill:#FFFFFF;stroke:#FFFFFF;stroke-miterlimit:10;}
	.st42{opacity:0.8;fill:url(#SVGID_95_);}
	.st43{opacity:0.8;fill:url(#SVGID_96_);}
	.st44{opacity:0.8;fill:url(#SVGID_97_);}
	.st45{opacity:0.8;fill:#1D1D1B;}
	.st46{fill:none;stroke:#DADADA;stroke-width:2;stroke-linecap:round;stroke-linejoin:round;stroke-miterlimit:10;}
</style>
<g id="Capa_1">
</g>
<g id="Login">
	<g class="st4">
		<path class="st5" d="M21.34,9.84h-1.81V7.57c0-4.17-3.4-7.57-7.57-7.57C7.79,0,4.39,3.4,4.39,7.57v2.27H2.58
			C1.16,9.84,0,11,0,12.41v14.73c0,1.44,1.16,2.6,2.58,2.6h18.77c1.44,0,2.6-1.16,2.6-2.6V12.41C23.95,11,22.78,9.84,21.34,9.84z
			 M7.81,7.57c0-2.29,1.86-4.15,4.15-4.15c2.29,0,4.15,1.86,4.15,4.15v2.27H7.81V7.57z M13.36,22.92v3.76c0,0.16-0.13,0.28-0.3,0.28
			h-1.8c-0.14,0-0.27-0.11-0.27-0.28v-3.76c-1.23-0.48-2.12-1.67-2.12-3.08c0-1.82,1.48-3.3,3.31-3.3c1.82,0,3.3,1.48,3.3,3.3
			C15.48,21.26,14.59,22.44,13.36,22.92z"/>
	</g>
</g>
<g id="Home">
</g>
<g id="Credit">
</g>
<g id="Capa_5">
</g>
<g id="Nuew_account">
</g>
<g id="Photo">
</g>
<g id="take">
</g>
<g id="galeria">
</g>
<g id="Firma1">
</g>
<g id="firma2">
</g>
<g id="Ya_firmas">
</g>
<g id="finaliza">
</g>
<g id="Follow_x5F_up">
</g>
<g id="co_-_applicant">
</g>
<g id="firma3">
</g>
<g id="firma3_x2C_3">
</g>
<g id="referencias">
</g>
<g id="signature">
</g>
<g id="approvade">
</g>
<g id="date">
</g>
<g id="Denegade">
</g>
<g id="Capa_23">
</g>
<g id="Capa_26">
</g>
<g id="calendario">
</g>
<g id="Capa_25">
</g>
</svg>
