<?xml version="1.0" encoding="utf-8"?>
<!-- Generator: Adobe Illustrator 24.1.0, SVG Export Plug-In . SVG Version: 6.00 Build 0)  -->
<svg version="1.1" xmlns="http://www.w3.org/2000/svg" xmlns:xlink="http://www.w3.org/1999/xlink" x="0px" y="0px"
	 viewBox="0 0 58.33 44.67" style="enable-background:new 0 0 58.33 44.67;" xml:space="preserve">
<style type="text/css">
	.st0{display:none;}
	.st1{opacity:0.82;}
	.st2{opacity:0.7;fill:#1D1D1B;}
	.st3{fill:#1C9BD3;}
	.st4{opacity:0.7;}
	.st5{fill:#FFFFFF;}
	.st6{fill:none;stroke:#1C9BD3;stroke-miterlimit:10;}
	.st7{display:none;opacity:0.29;}
	.st8{opacity:0.29;}
	.st9{display:inline;}
	.st10{fill:#212121;}
	.st11{display:none;fill:#DADADA;}
	.st12{display:inline;fill:#1C9BD3;}
	.st13{fill:#3C3C3B;}
	.st14{fill:#878787;}
	.st15{fill:none;stroke:#878787;stroke-width:6;stroke-linecap:round;stroke-linejoin:round;stroke-miterlimit:10;}
	.st16{fill:none;stroke:#B2B2B2;stroke-miterlimit:10;}
	.st17{fill:#009FE3;}
	.st18{fill:none;stroke:#9D9D9C;stroke-miterlimit:10;}
	.st19{fill:none;stroke:#575756;stroke-width:0.5;stroke-miterlimit:10;}
	.st20{fill:none;stroke:#706F6F;stroke-width:2;stroke-linecap:round;stroke-linejoin:round;stroke-miterlimit:10;}
	.st21{clip-path:url(#SVGID_16_);}
	.st22{fill:none;stroke:#F6F6F6;stroke-width:5;stroke-miterlimit:10;}
	.st23{opacity:0.88;}
	.st24{fill:#575756;}
	.st25{display:inline;clip-path:url(#SVGID_18_);}
	.st26{fill:#DADADA;}
	.st27{display:inline;fill:#FFFFFF;}
	.st28{clip-path:url(#SVGID_60_);}
	.st29{fill:none;stroke:#FFFFFF;stroke-width:6;stroke-linecap:round;stroke-linejoin:round;stroke-miterlimit:10;}
	.st30{fill:none;stroke:#1C9BD3;stroke-width:2;stroke-miterlimit:10;}
	.st31{fill:none;stroke:#575756;stroke-miterlimit:10;}
	.st32{fill:none;stroke:#1D1D1B;stroke-miterlimit:10;}
	.st33{fill:#706F6F;}
	.st34{fill:none;stroke:#575756;stroke-width:0.75;stroke-miterlimit:10;}
	.st35{opacity:0.4;}
	.st36{fill-rule:evenodd;clip-rule:evenodd;fill:#1C9BD3;}
	.st37{opacity:0.8;}
	.st38{fill:#E30613;}
	.st39{fill:none;stroke:#1D1D1B;stroke-width:0.75;stroke-miterlimit:10;}
	.st40{fill:none;stroke:#E30613;stroke-miterlimit:10;}
	.st41{fill:#FFFFFF;stroke:#FFFFFF;stroke-miterlimit:10;}
	.st42{opacity:0.8;fill:url(#SVGID_95_);}
	.st43{opacity:0.8;fill:url(#SVGID_96_);}
	.st44{opacity:0.8;fill:url(#SVGID_97_);}
	.st45{opacity:0.8;fill:#1D1D1B;}
	.st46{fill:none;stroke:#DADADA;stroke-width:2;stroke-linecap:round;stroke-linejoin:round;stroke-miterlimit:10;}
</style>
<g id="Capa_1">
</g>
<g id="Login">
</g>
<g id="Home">
</g>
<g id="Credit">
</g>
<g id="Capa_5">
</g>
<g id="Nuew_account">
</g>
<g id="Photo">
	<g id="sY1yQQ_4_">
		<g>
			<path class="st5" d="M29.18,44.66c-6.59,0-13.19,0-19.78,0c-1.13,0-2.28,0.06-3.39-0.08c-2.39-0.3-4.13-1.6-5.25-3.72
				C0.23,39.86,0,38.8,0,37.67c0.01-2.06,0-4.11,0-6.17C0.01,25.25,0.02,19,0,12.75c0-1.58,0.35-3.03,1.29-4.3
				c1.41-1.91,3.32-2.9,5.69-2.92c3.06-0.02,6.11-0.01,9.17,0c0.25,0,0.37-0.08,0.47-0.3c0.37-0.8,0.75-1.6,1.15-2.39
				c0.37-0.74,0.98-1.27,1.66-1.72c1.11-0.75,2.33-1.13,3.69-1.12c4.09,0.02,8.19,0,12.28,0.01c1.92,0.01,3.5,0.81,4.74,2.24
				c0.36,0.42,0.56,0.97,0.82,1.48c0.28,0.56,0.54,1.13,0.83,1.68c0.04,0.07,0.21,0.11,0.31,0.11c1.73,0.01,3.46,0,5.19,0
				c1.32,0,2.63,0,3.95,0c2.13,0,3.92,0.77,5.34,2.35c1.14,1.27,1.74,2.78,1.74,4.49c0.01,6.6,0,13.21,0,19.81c0,1.8,0,3.6,0,5.39
				c0.01,2.35-0.91,4.25-2.76,5.69c-1.28,1-2.76,1.41-4.38,1.41c-6.91-0.01-13.82,0-20.74,0C30.03,44.66,29.6,44.66,29.18,44.66z
				 M29.15,41.02c1.14,0,2.29,0,3.43,0c4.86,0,9.71,0,14.57,0c1.43,0,2.86,0.02,4.29-0.01c1.08-0.02,1.95-0.49,2.6-1.37
				c0.5-0.66,0.65-1.42,0.65-2.22c0-3.6,0-7.19,0-10.79c0-4.61,0-9.23,0-13.84c0-0.13,0-0.27-0.01-0.4
				c-0.06-1.77-1.54-3.2-3.29-3.19c-3.31,0.02-6.61,0.01-9.92,0c-0.35,0-0.7,0.01-1.04-0.04c-0.58-0.08-1.06-0.37-1.33-0.91
				c-0.53-1.05-1.05-2.09-1.53-3.16c-0.43-0.98-1.21-1.4-2.2-1.43c-1.5-0.05-3-0.01-4.5-0.01c-2.66,0-5.33-0.03-7.99,0.02
				c-0.88,0.01-1.64,0.39-2.05,1.25c-0.42,0.87-0.83,1.75-1.26,2.62c-0.17,0.34-0.33,0.71-0.56,1c-0.39,0.49-0.94,0.66-1.56,0.66
				c-3.51,0-7.02,0-10.53,0c-0.78,0-1.47,0.24-2.07,0.74C4,10.65,3.64,11.58,3.64,12.68c0,2.01,0,4.02,0,6.03
				c0,6.22,0,12.44,0,18.66c0,0.15,0,0.31,0.01,0.46c0.08,1.8,1.53,3.19,3.33,3.19c1.31,0,2.61,0,3.92,0
				C16.98,41.02,23.07,41.02,29.15,41.02z"/>
			<path class="st5" d="M41.92,24.6c0.02,7.05-5.71,12.69-12.59,12.78c-7.18,0.09-12.92-5.78-12.93-12.71
				c0-7.11,5.7-12.83,12.78-12.82C36.22,11.87,41.92,17.57,41.92,24.6z M29.16,33.73c4.96,0,9.07-4.08,9.12-8.96
				c0.05-5.11-4.07-9.25-9.11-9.26c-4.98-0.01-9.12,4.1-9.12,9.05C20.05,29.62,24.12,33.72,29.16,33.73z"/>
		</g>
	</g>
</g>
<g id="take">
</g>
<g id="galeria">
</g>
<g id="Firma1">
</g>
<g id="firma2">
</g>
<g id="Ya_firmas">
</g>
<g id="finaliza">
</g>
<g id="Follow_x5F_up">
</g>
<g id="co_-_applicant">
</g>
<g id="firma3">
</g>
<g id="firma3_x2C_3">
</g>
<g id="referencias">
</g>
<g id="signature">
</g>
<g id="approvade">
</g>
<g id="date">
</g>
<g id="Denegade">
</g>
<g id="Capa_23">
</g>
<g id="Capa_26">
</g>
<g id="calendario">
</g>
<g id="Capa_25">
</g>
</svg>
